<svg xmlns="http://www.w3.org/2000/svg" viewBox="0 0 72 72"><path d="M48.43 24.541a29.72 29.72 0 00-7.335-2.275.111.111 0 00-.118.056 20.703 20.703 0 00-.914 1.876 27.436 27.436 0 00-8.239 0c-.245-.59-.609-1.313-.927-1.876a.116.116 0 00-.118-.056 29.636 29.636 0 00-7.336 2.275.105.105 0 00-.048.042c-4.672 6.98-5.952 13.788-5.324 20.512a.124.124 0 00.047.084 29.885 29.885 0 008.999 4.55.117.117 0 00.126-.042 21.36 21.36 0 001.841-2.995.114.114 0 00-.062-.158 19.68 19.68 0 01-2.811-1.34.116.116 0 01-.012-.192c.19-.141.378-.289.558-.437a.111.111 0 01.117-.016c5.898 2.693 12.283 2.693 18.112 0a.111.111 0 01.117.014c.18.149.37.298.56.44a.116.116 0 01-.01.19c-.898.526-1.83.969-2.812 1.34a.115.115 0 00-.062.16 23.983 23.983 0 001.84 2.992c.028.04.08.058.126.043 2.945-.91 5.931-2.285 9.014-4.549a.116.116 0 00.047-.083c.751-7.773-1.26-14.526-5.329-20.512a.092.092 0 00-.047-.043zm-18.465 16.46c-1.776 0-3.239-1.63-3.239-3.632 0-2.003 1.435-3.633 3.239-3.633 1.818 0 3.267 1.645 3.239 3.633 0 2.002-1.435 3.632-3.239 3.632zm11.975 0c-1.776 0-3.239-1.63-3.239-3.632 0-2.003 1.435-3.633 3.239-3.633 1.818 0 3.267 1.645 3.239 3.633 0 2.002-1.42 3.632-3.24 3.632z" fill="#231f20"/></svg>