<svg xmlns="http://www.w3.org/2000/svg" viewBox="0 0 72 72"><path d="M36 18.25c-9.9 0-18 8.1-18 18 0 8.5 5.8 15.5 13.6 17.5-.1-.2-.1-.5-.1-.9v-3.1h-2.3c-1.2 0-2.3-.5-2.8-1.5-.6-1.1-.7-2.7-2.2-3.8-.5-.4-.1-.7.4-.7.9.3 1.7.9 2.4 1.8s1 1.2 2.4 1.2c.6 0 1.6 0 2.5-.2.5-1.3 1.3-2.4 2.4-2.9-6-.7-8.9-3.7-8.9-7.7 0-1.8.8-3.4 2-4.9-.4-1.4-.9-4.3.2-5.4 2.7 0 4.3 1.8 4.7 2.2 1.3-.5 2.8-.7 4.4-.7 1.6 0 3 .3 4.4.7.4-.5 2-2.2 4.7-2.2 1.1 1.1.6 4 .1 5.4 1.3 1.4 2 3.1 2 4.9 0 4.1-2.8 7-8.8 7.7 1.7.9 2.8 3.3 2.8 5.1v4.5c7-2.4 12.1-9.1 12.1-17 0-9.9-8.1-18-18-18z" fill="#231f20"/></svg>