<svg version="1.1" id="Capa_1" xmlns="http://www.w3.org/2000/svg" x="0" y="0" viewBox="0 0 410.3 410.3" xml:space="preserve"><style>.st0{fill:#a3a3a3;stroke:#a3a3a3;stroke-width:4;stroke-miterlimit:10}</style><path class="st0" d="M205.2 401.5c-1.6 0-3.2-.7-4.3-1.9-1.5-1.7-38-42.6-73.9-93.3-31.5-44.7-69.2-106.5-69.2-147.7 0-81.2 66.1-147.4 147.4-147.5 81.2.1 147.3 66.3 147.4 147.5 0 76.9-128.4 224.3-143 240.9l-.1.1c-.1.2-.3.3-.5.5-1 1-2.4 1.4-3.8 1.4zm0-378.8c-74.9 0-135.9 60.9-135.9 135.9 0 28.3 19.3 71 57.5 126.9 28.6 42 60.5 80.5 77 99.8l1.4 1.7 1.4-1.7c13.1-15.2 46.8-55.4 77-99.7 38.1-56 57.5-98.7 57.5-127 0-75-61-135.9-135.9-135.9z"/><path class="st0" d="M205.2 13.1c38.8.1 75.3 15.3 102.8 42.8s42.6 64 42.6 102.9c0 17.7-7.1 40.7-21 68.7-11.3 22.8-27.3 48.7-47.4 77.1-33.1 47-67.5 86.4-74.2 93.9l-.1.1-.3.3c-.7.7-1.6 1-2.6 1-1.2 0-2.1-.5-2.9-1.2-1.5-1.7-37.9-42.5-73.7-93.2C83.5 241.6 59.7 191 59.7 158.8c0-38.8 15.2-75.4 42.7-102.9 27.4-27.6 64-42.8 102.8-42.8m0 376.9l2.9-3.4c13.1-15.3 46.9-55.5 77.1-99.9 38.3-56.3 57.8-99.3 57.8-128.1 0-36.8-14.3-71.4-40.4-97.4-26-26-60.6-40.4-97.4-40.4s-71.4 14.3-97.4 40.4-40.4 60.6-40.4 97.4c0 28.7 19.4 71.8 57.8 128.1 28.6 42.1 60.6 80.7 77.1 100l2.9 3.3m0-380.7c-82.4.1-149.3 67-149.3 149.4 0 80.2 137.8 235.8 143.5 242.3 1.5 1.7 3.7 2.6 5.8 2.6 1.8 0 3.7-.7 5.1-1.9l.6-.6c5.9-6.6 143.5-162 143.5-242.3 0-82.6-66.8-149.4-149.2-149.5zm0 374.9C178.9 353.4 71.3 224.4 71.3 158.7c0-74 60-133.9 133.9-133.9s133.9 60 133.9 133.9c.1 65.6-107.6 194.8-133.9 225.5z"/><g><path class="st0" d="M205.5 244.2c-43.5 0-79-35.5-79-79-.1-43.5 35.4-79.1 78.9-79.1s79 35.5 79.1 79c0 43.5-35.4 79-79 79.1zm-.1-146.5c-37.2 0-67.4 30.3-67.4 67.4s30.3 67.4 67.4 67.4 67.4-30.4 67.4-67.4c.1-37.1-30.2-67.4-67.4-67.4z"/><path class="st0" d="M205.4 88c20.6 0 40 8.1 54.5 22.6a76.8 76.8 0 0122.7 54.5c0 42.5-34.6 77.1-77.1 77.1h-.1c-42.5 0-77.1-34.6-77.1-77.1 0-20.6 8-40 22.5-54.6 14.6-14.4 34-22.5 54.6-22.5m0 146.7c38.2 0 69.4-31.2 69.4-69.4s-31.1-69.4-69.4-69.4S136 127 136 165.3s31.1 69.4 69.4 69.4m0-150.5c-44.7 0-80.9 36.3-80.9 81s36.3 80.9 80.9 80.9h.1c44.7 0 80.9-36.2 80.9-80.9-.1-44.8-36.3-81-81-81zm0 146.6c-36.2 0-65.5-29.4-65.5-65.5s29.4-65.5 65.5-65.5 65.5 29.4 65.5 65.5-29.3 65.4-65.5 65.5z"/></g></svg>